<svg xmlns="http://www.w3.org/2000/svg" version="1.1" xmlns:xlink="http://www.w3.org/1999/xlink" xmlns:svgjs="http://svgjs.dev/svgjs" width="1000" height="1000" viewBox="0 0 1000 1000"><rect width="1000" height="1000" fill="#eb6411"></rect><g transform="matrix(0.7,0,0,0.7,150.47872869981097,233.51595141700398)"><svg viewBox="0 0 324 247" data-background-color="#eb6411" preserveAspectRatio="xMidYMid meet" height="762" width="1000" xmlns="http://www.w3.org/2000/svg" xmlns:xlink="http://www.w3.org/1999/xlink"><g id="tight-bounds" transform="matrix(1,0,0,1,-0.22158299819821536,-0.09999999999999432)"><svg viewBox="0 0 324.4431645089449 247.2" height="247.2" width="324.4431645089449"><g><svg viewBox="0 0 395.52 301.3549203540221" height="247.2" width="324.4431645089449"><g transform="matrix(1,0,0,1,0,213.85509233574345)"><svg viewBox="0 0 395.52 87.49982801827866" height="87.49982801827866" width="395.52"><g><svg viewBox="0 0 395.52 87.49982801827866" height="87.49982801827866" width="395.52"><g><svg viewBox="0 0 395.52 54.39847730600293" height="54.39847730600293" width="395.52"><g transform="matrix(1,0,0,1,0,0)"><svg width="395.52" viewBox="0.4399999976158142 -36.209999084472656 266.7799987792969 36.70000076293945" height="54.39847730600293" data-palette-color="#ffffff"><path d="M15.89-32.01L15.89 0 11.74 0 11.74-32.01 0.44-32.01 0.44-35.69 27.2-35.69 27.2-32.01 15.89-32.01ZM44.16-14.84L36.72-14.84 36.72 0 32.57 0 32.57-35.69 42.36-35.69Q48.92-35.69 52.06-33.18 55.2-30.66 55.2-25.61L55.2-25.61Q55.2-18.53 48.02-16.04L48.02-16.04 57.71 0 52.81 0 44.16-14.84ZM36.72-32.06L36.72-18.41 42.4-18.41Q46.8-18.41 48.85-20.15 50.9-21.9 50.9-25.39L50.9-25.39Q50.9-28.93 48.81-30.49 46.73-32.06 42.11-32.06L42.11-32.06 36.72-32.06ZM90.2 0L85.91 0 81.46-11.35 67.16-11.35 62.76 0 58.56 0 72.68-35.84 76.17-35.84 90.2 0ZM68.62-15.09L80.17-15.09 76.02-26.15Q75.21-28.25 74.36-31.3L74.36-31.3Q73.82-28.96 72.82-26.15L72.82-26.15 68.62-15.09ZM110.39-32.5L110.39-32.5Q104.51-32.5 101.1-28.58 97.7-24.66 97.7-17.85L97.7-17.85Q97.7-10.84 100.98-7.02 104.26-3.2 110.34-3.2L110.34-3.2Q114.08-3.2 118.86-4.54L118.86-4.54 118.86-0.9Q115.15 0.49 109.71 0.49L109.71 0.49Q101.82 0.49 97.54-4.3 93.25-9.08 93.25-17.9L93.25-17.9Q93.25-23.41 95.32-27.56 97.38-31.71 101.27-33.96 105.17-36.21 110.44-36.21L110.44-36.21Q116.06-36.21 120.26-34.16L120.26-34.16 118.5-30.59Q114.45-32.5 110.39-32.5ZM137.54-20.19L152.43 0 147.55 0 134.54-17.31 130.8-13.99 130.8 0 126.65 0 126.65-35.69 130.8-35.69 130.8-17.99 146.99-35.69 151.89-35.69 137.54-20.19ZM184.07 0L179.77 0 175.33-11.35 161.02-11.35 156.63 0 152.43 0 166.54-35.84 170.03-35.84 184.07 0ZM162.49-15.09L174.04-15.09 169.88-26.15Q169.08-28.25 168.22-31.3L168.22-31.3Q167.69-28.96 166.69-26.15L166.69-26.15 162.49-15.09ZM188.97 0L188.97-35.69 199.06-35.69Q206.16-35.69 209.34-33.57 212.51-31.45 212.51-26.86L212.51-26.86Q212.51-23.68 210.74-21.62 208.97-19.56 205.58-18.95L205.58-18.95 205.58-18.7Q213.71-17.31 213.71-10.16L213.71-10.16Q213.71-5.37 210.47-2.69 207.24 0 201.43 0L201.43 0 188.97 0ZM193.12-32.1L193.12-20.41 199.96-20.41Q204.36-20.41 206.28-21.79 208.21-23.17 208.21-26.44L208.21-26.44Q208.21-29.44 206.06-30.77 203.92-32.1 199.23-32.1L199.23-32.1 193.12-32.1ZM200.23-16.89L193.12-16.89 193.12-3.54 200.57-3.54Q204.89-3.54 207.08-5.21 209.26-6.88 209.26-10.45L209.26-10.45Q209.26-13.77 207.03-15.33 204.79-16.89 200.23-16.89L200.23-16.89ZM241.27 0L221.37 0 221.37-35.69 225.52-35.69 225.52-3.76 241.27-3.76 241.27 0ZM267.22-3.71L267.22 0 247.32 0 247.32-35.69 267.22-35.69 267.22-32.01 251.47-32.01 251.47-20.51 266.26-20.51 266.26-16.85 251.47-16.85 251.47-3.71 267.22-3.71Z" opacity="1" transform="matrix(1,0,0,1,0,0)" fill="#ffffff" class="undefined-text-0" data-fill-palette-color="primary" id="text-0"></path></svg></g></svg></g><g transform="matrix(1,0,0,1,75.54432000000001,67.24065223449487)"><svg viewBox="0 0 244.43135999999996 20.259175783783782" height="20.259175783783782" width="244.43135999999996"><g transform="matrix(1,0,0,1,0,0)"><svg width="244.43135999999996" viewBox="3 -35.5 554.9299926757812 46" height="20.259175783783782" data-palette-color="#ffffff"><path d="M19.3-1.5Q20.6-2 21.48-3.33 22.35-4.65 22.35-7.6L22.35-7.6 22.35-14.7Q21-13.5 18.75-12.88 16.5-12.25 14.45-12.25L14.45-12.25Q9.15-12.25 6.08-14.88 3-17.5 3-22.65L3-22.65 3-35 5.8-35 5.8-22.15Q5.8-18.65 8.2-16.82 10.6-15 14.45-15L14.45-15Q17.4-15 19.6-16.25 21.8-17.5 22.35-20L22.35-20 22.35-35 25.2-35 25.2-7.8Q25.2-4.15 23.83-2.08 22.45 0 19.95 0.35L19.95 0.35 19.3-1.5ZM48.65-9.2Q48.65-5 46.35-2.25 44.05 0.5 39.4 0.5L39.4 0.5Q34.75 0.5 32.37-2.27 30-5.05 30-9.2L30-9.2 30-15.8Q30-20.55 32.42-23.08 34.85-25.6 39.4-25.6L39.4-25.6Q43.75-25.6 46.2-22.98 48.65-20.35 48.65-15.8L48.65-15.8 48.65-9.2ZM45.85-15.8Q45.85-19.55 44.12-21.3 42.4-23.05 39.4-23.05L39.4-23.05Q36.3-23.05 34.55-21.3 32.8-19.55 32.8-15.8L32.8-15.8 32.8-8.7Q32.8-5.7 34.57-3.85 36.35-2 39.4-2L39.4-2Q42.5-2 44.17-3.83 45.85-5.65 45.85-8.7L45.85-8.7 45.85-15.8ZM68 0L68.2-2.55Q67-1.05 65.17-0.25 63.34 0.55 61.5 0.55L61.5 0.55Q52.09 0.55 52.09-8.6L52.09-8.6 52.09-25.05 54.9-25.05 54.9-8.25Q54.9-5.05 56.67-3.5 58.45-1.95 61.5-1.95L61.5-1.95Q64.5-1.95 66.22-3.48 67.95-5 67.95-8.25L67.95-8.25 67.95-25.05 70.75-25.05 70.75 0 68 0ZM75.69 0L75.69-25.05 78.49-25.05 78.34-23.3Q80.69-25.5 84.49-25.5L84.49-25.5Q85.84-25.5 88.19-25.05L88.19-25.05 87.44-22.5Q85.84-23 84.09-23L84.09-23Q81.79-23 80.14-22.15 78.49-21.3 78.49-19.6L78.49-19.6 78.49 0 75.69 0ZM107.09 10.5L107.09-25.05 109.89-25.05 109.64-22.5Q110.99-23.95 112.81-24.7 114.64-25.45 116.44-25.45L116.44-25.45Q121.09-25.45 123.51-22.75 125.94-20.05 125.94-15.75L125.94-15.75 125.94-8.8Q125.94-4.25 123.39-1.83 120.84 0.6 116.64 0.6L116.64 0.6Q114.49 0.6 112.84 0 111.19-0.6 109.89-2.1L109.89-2.1 109.89 9.4 107.09 10.5ZM123.14-15.95Q123.14-19.6 121.21-21.25 119.29-22.9 116.64-22.9L116.64-22.9Q113.94-22.9 111.99-21.28 110.04-19.65 109.89-16.2L109.89-16.2 109.89-8.3Q109.89-5.05 111.74-3.5 113.59-1.95 116.64-1.95L116.64-1.95Q119.39-1.95 121.26-3.58 123.14-5.2 123.14-8.3L123.14-8.3 123.14-15.95ZM146.09-1.75Q144.29-0.6 141.99 0 139.69 0.6 137.39 0.6L137.39 0.6Q133.69 0.6 131.51-1.23 129.34-3.05 129.34-6.7L129.34-6.7 129.34-16.95Q129.34-21 131.86-23.25 134.39-25.5 138.54-25.5L138.54-25.5Q142.69-25.5 145.01-23.28 147.34-21.05 147.34-17.1L147.34-17.1 147.34-10.6 132.14-9.75 132.14-6.7Q132.14-4.3 133.69-3.1 135.24-1.9 137.74-1.9L137.74-1.9Q141.24-1.9 144.99-3.9L144.99-3.9 146.09-1.75ZM144.54-17.45Q144.54-20.55 142.59-21.83 140.64-23.1 138.49-23.1L138.49-23.1Q135.74-23.1 133.94-21.6 132.14-20.1 132.14-16.9L132.14-16.9 132.14-12.5 144.54-13.1 144.54-17.45ZM152.33 0L152.33-25.05 155.13-25.05 154.98-23.3Q157.33-25.5 161.13-25.5L161.13-25.5Q162.48-25.5 164.83-25.05L164.83-25.05 164.08-22.5Q162.48-23 160.73-23L160.73-23Q158.43-23 156.78-22.15 155.13-21.3 155.13-19.6L155.13-19.6 155.13 0 152.33 0ZM168.18-6.35Q168.48-4.1 170.43-2.98 172.38-1.85 174.78-1.85L174.78-1.85Q177.03-1.85 178.88-2.88 180.73-3.9 180.73-6.2L180.73-6.2Q180.73-7.7 179.86-8.68 178.98-9.65 177.68-10.25 176.38-10.85 174.18-11.55L174.18-11.55Q171.73-12.35 170.18-13.05 168.63-13.75 167.48-15.03 166.33-16.3 166.13-18.25L166.13-18.25 166.08-18.85Q166.08-20.5 167.01-22.08 167.93-23.65 169.86-24.65 171.78-25.65 174.68-25.65L174.68-25.65Q176.28-25.65 177.51-25.33 178.73-25 179.43-24.65 180.13-24.3 180.28-24.2L180.28-24.2 179.33-21.9Q179.18-22 178.61-22.3 178.03-22.6 176.98-22.9 175.93-23.2 174.68-23.2L174.68-23.2Q172.28-23.2 170.58-22.08 168.88-20.95 168.88-18.95L168.88-18.95Q168.88-17.05 170.43-16.05 171.98-15.05 175.18-14.05L175.18-14.05Q177.88-13.15 179.53-12.35 181.18-11.55 182.36-10.08 183.53-8.6 183.53-6.25L183.53-6.25Q183.53-3.25 181.31-1.25 179.08 0.75 174.78 0.75L174.78 0.75Q171.93 0.75 169.86-0.23 167.78-1.2 166.71-2.8 165.63-4.4 165.53-6.35L165.53-6.35 168.18-6.35ZM207.83-9.2Q207.83-5 205.53-2.25 203.23 0.5 198.58 0.5L198.58 0.5Q193.93 0.5 191.55-2.27 189.18-5.05 189.18-9.2L189.18-9.2 189.18-15.8Q189.18-20.55 191.6-23.08 194.03-25.6 198.58-25.6L198.58-25.6Q202.93-25.6 205.38-22.98 207.83-20.35 207.83-15.8L207.83-15.8 207.83-9.2ZM205.03-15.8Q205.03-19.55 203.3-21.3 201.58-23.05 198.58-23.05L198.58-23.05Q195.48-23.05 193.73-21.3 191.98-19.55 191.98-15.8L191.98-15.8 191.98-8.7Q191.98-5.7 193.75-3.85 195.53-2 198.58-2L198.58-2Q201.68-2 203.35-3.83 205.03-5.65 205.03-8.7L205.03-8.7 205.03-15.8ZM228.38 0L228.38-17.15Q228.38-20.2 226.6-21.58 224.83-22.95 222.03-22.95L222.03-22.95Q220.33-22.95 218.58-22.48 216.83-22 215.48-21.25L215.48-21.25 215.48 0 212.68 0 212.68-25.05 215.48-25.05 215.28-23.35Q216.48-24.4 218.33-24.93 220.18-25.45 222.18-25.45L222.18-25.45Q224.93-25.45 226.88-24.55L226.88-24.55Q228.88-23.65 230-21.85 231.13-20.05 231.13-17.3L231.13-17.3 231.13 0 228.38 0ZM255.57 0Q250.17 0.55 247.77 0.55L247.77 0.55Q242.52 0.55 239.42-1.4 236.32-3.35 236.32-8.45L236.32-8.45 236.32-12.6Q236.32-17.55 239.77-19.25L239.77-19.25Q241.42-20.1 243.97-20.1L243.97-20.1Q246.32-20.1 248.72-19.33 251.12-18.55 252.77-17.3L252.77-17.3Q252.77-20.05 251.17-21.68 249.57-23.3 245.02-23.3L245.02-23.3 245.17-25.45Q249.97-25.45 252.25-23.93 254.52-22.4 255.05-20.3 255.57-18.2 255.57-14.9L255.57-14.9 255.57 0ZM252.77-15.15Q250.72-16.1 248.4-16.8 246.07-17.5 244.12-17.5L244.12-17.5Q239.07-17.5 239.07-12.45L239.07-12.45 239.07-8.1Q239.07-4.85 241.32-3.38 243.57-1.9 247.72-1.9L247.72-1.9Q249.87-1.9 252.77-2.3L252.77-2.3 252.77-15.15ZM261.27 0L261.27-35 264.07-35 264.07 0 261.27 0ZM289.47 0.65Q286.67-0.15 285.42-1.9 284.17-3.65 284.17-6.6L284.17-6.6 284.17-35 286.97-35 286.97-25.05 292.97-25.05 291.77-22.4 286.97-22.4 286.97-6.6Q286.97-2.6 290.27-1.5L290.27-1.5 289.47 0.65ZM297.16 0L297.16-25.05 299.96-25.05 299.81-23.3Q302.16-25.5 305.96-25.5L305.96-25.5Q307.31-25.5 309.66-25.05L309.66-25.05 308.91-22.5Q307.31-23 305.56-23L305.56-23Q303.26-23 301.61-22.15 299.96-21.3 299.96-19.6L299.96-19.6 299.96 0 297.16 0ZM326.76 0Q321.36 0.55 318.96 0.55L318.96 0.55Q313.71 0.55 310.61-1.4 307.51-3.35 307.51-8.45L307.51-8.45 307.51-12.6Q307.51-17.55 310.96-19.25L310.96-19.25Q312.61-20.1 315.16-20.1L315.16-20.1Q317.51-20.1 319.91-19.33 322.31-18.55 323.96-17.3L323.96-17.3Q323.96-20.05 322.36-21.68 320.76-23.3 316.21-23.3L316.21-23.3 316.36-25.45Q321.16-25.45 323.43-23.93 325.71-22.4 326.23-20.3 326.76-18.2 326.76-14.9L326.76-14.9 326.76 0ZM323.96-15.15Q321.91-16.1 319.58-16.8 317.26-17.5 315.31-17.5L315.31-17.5Q310.26-17.5 310.26-12.45L310.26-12.45 310.26-8.1Q310.26-4.85 312.51-3.38 314.76-1.9 318.91-1.9L318.91-1.9Q321.06-1.9 323.96-2.3L323.96-2.3 323.96-15.15ZM346.46-0.3Q343.36 0.5 340.46 0.5L340.46 0.5Q337.76 0.5 335.96-0.1L335.96-0.1Q333.01-1.1 331.68-3.18 330.36-5.25 330.36-9L330.36-9 330.36-15.4Q330.36-20.35 332.96-22.93 335.56-25.5 339.66-25.5L339.66-25.5Q342.91-25.5 346.36-23.9L346.36-23.9 345.56-21.85Q342.71-23 340.06-23L340.06-23Q336.96-23 335.06-21.23 333.16-19.45 333.16-15.7L333.16-15.7 333.16-8.45Q333.16-5 335.23-3.45 337.31-1.9 340.76-1.9L340.76-1.9Q343.01-1.9 345.86-2.55L345.86-2.55 346.46-0.3ZM364.25 0L354.65-15.85 352.05-13.6 352.05 0 349.25 0 349.25-35 352.05-35 352.05-16.75 362.05-26 364.05-24.05 356.65-17.6Q360.05-11.95 367.6 0L367.6 0 364.25 0ZM373.2-32.15Q372.55-32.15 372.03-32.68 371.5-33.2 371.5-33.85L371.5-33.85Q371.5-34.5 372-35 372.5-35.5 373.2-35.5L373.2-35.5Q373.9-35.5 374.38-35.02 374.85-34.55 374.85-33.85L374.85-33.85Q374.85-33.15 374.35-32.65 373.85-32.15 373.2-32.15L373.2-32.15ZM371.75 0L371.75-25.05 374.55-25.05 374.55 0 371.75 0ZM397.75 0L397.75-17.15Q397.75-20.2 395.97-21.58 394.2-22.95 391.4-22.95L391.4-22.95Q389.7-22.95 387.95-22.48 386.2-22 384.85-21.25L384.85-21.25 384.85 0 382.05 0 382.05-25.05 384.85-25.05 384.65-23.35Q385.85-24.4 387.7-24.93 389.55-25.45 391.55-25.45L391.55-25.45Q394.3-25.45 396.25-24.55L396.25-24.55Q398.25-23.65 399.37-21.85 400.5-20.05 400.5-17.3L400.5-17.3 400.5 0 397.75 0ZM418.45 8.35Q421.75 7.1 421.75 3.15L421.75 3.15 421.75-3.05Q419.65 0.6 415 0.6L415 0.6Q410.6 0.6 408.15-1.8 405.7-4.2 405.7-8.8L405.7-8.8 405.7-16.25Q405.7-20.65 408.27-23.08 410.85-25.5 415.2-25.5L415.2-25.5Q419.85-25.5 421.95-22.15L421.95-22.15 421.75-25.05 424.55-25.05 424.55 3.2Q424.55 6.2 423.3 7.9 422.05 9.6 419.2 10.5L419.2 10.5 418.45 8.35ZM421.75-16.8Q421.75-19.9 419.75-21.43 417.75-22.95 415-22.95L415-22.95Q412.35-22.95 410.42-21.33 408.5-19.7 408.5-16L408.5-16 408.5-8.35Q408.5-5.2 410.27-3.6 412.05-2 415-2L415-2Q417.8-2 419.77-3.73 421.75-5.45 421.75-8.65L421.75-8.65 421.75-16.8ZM458.64-1.75Q456.84-0.6 454.54 0 452.24 0.6 449.94 0.6L449.94 0.6Q446.24 0.6 444.07-1.23 441.89-3.05 441.89-6.7L441.89-6.7 441.89-16.95Q441.89-21 444.42-23.25 446.94-25.5 451.09-25.5L451.09-25.5Q455.24-25.5 457.57-23.28 459.89-21.05 459.89-17.1L459.89-17.1 459.89-10.6 444.69-9.75 444.69-6.7Q444.69-4.3 446.24-3.1 447.79-1.9 450.29-1.9L450.29-1.9Q453.79-1.9 457.54-3.9L457.54-3.9 458.64-1.75ZM457.09-17.45Q457.09-20.55 455.14-21.83 453.19-23.1 451.04-23.1L451.04-23.1Q448.29-23.1 446.49-21.6 444.69-20.1 444.69-16.9L444.69-16.9 444.69-12.5 457.09-13.1 457.09-17.45ZM479.84 0L473.69-9.85 467.54 0 464.24 0 472.04-12.45 464.24-25.05 467.39-25.05 473.69-15.05 479.99-25.05 483.14-25.05 475.29-12.45 483.14 0 479.84 0ZM488.69 10.5L488.69-25.05 491.49-25.05 491.24-22.5Q492.59-23.95 494.41-24.7 496.24-25.45 498.04-25.45L498.04-25.45Q502.69-25.45 505.11-22.75 507.54-20.05 507.54-15.75L507.54-15.75 507.54-8.8Q507.54-4.25 504.99-1.83 502.44 0.6 498.24 0.6L498.24 0.6Q496.09 0.6 494.44 0 492.79-0.6 491.49-2.1L491.49-2.1 491.49 9.4 488.69 10.5ZM504.74-15.95Q504.74-19.6 502.81-21.25 500.89-22.9 498.24-22.9L498.24-22.9Q495.54-22.9 493.59-21.28 491.64-19.65 491.49-16.2L491.49-16.2 491.49-8.3Q491.49-5.05 493.34-3.5 495.19-1.95 498.24-1.95L498.24-1.95Q500.99-1.95 502.86-3.58 504.74-5.2 504.74-8.3L504.74-8.3 504.74-15.95ZM527.68-1.75Q525.88-0.6 523.58 0 521.28 0.6 518.98 0.6L518.98 0.6Q515.28 0.6 513.11-1.23 510.93-3.05 510.93-6.7L510.93-6.7 510.93-16.95Q510.93-21 513.46-23.25 515.98-25.5 520.13-25.5L520.13-25.5Q524.28-25.5 526.61-23.28 528.93-21.05 528.93-17.1L528.93-17.1 528.93-10.6 513.73-9.75 513.73-6.7Q513.73-4.3 515.28-3.1 516.83-1.9 519.33-1.9L519.33-1.9Q522.83-1.9 526.58-3.9L526.58-3.9 527.68-1.75ZM526.13-17.45Q526.13-20.55 524.18-21.83 522.23-23.1 520.08-23.1L520.08-23.1Q517.33-23.1 515.53-21.6 513.73-20.1 513.73-16.9L513.73-16.9 513.73-12.5 526.13-13.1 526.13-17.45ZM533.93 0L533.93-25.05 536.73-25.05 536.58-23.3Q538.93-25.5 542.73-25.5L542.73-25.5Q544.08-25.5 546.43-25.05L546.43-25.05 545.68-22.5Q544.08-23 542.33-23L542.33-23Q540.03-23 538.38-22.15 536.73-21.3 536.73-19.6L536.73-19.6 536.73 0 533.93 0ZM554.43 0.65Q551.63-0.15 550.38-1.9 549.13-3.65 549.13-6.6L549.13-6.6 549.13-35 551.93-35 551.93-25.05 557.93-25.05 556.73-22.4 551.93-22.4 551.93-6.6Q551.93-2.6 555.23-1.5L555.23-1.5 554.43 0.65Z" opacity="1" transform="matrix(1,0,0,1,0,0)" fill="#ffffff" class="undefined-text-1" data-fill-palette-color="secondary" id="text-1"></path></svg></g></svg></g></svg></g></svg></g><g transform="matrix(1,0,0,1,97.25354129637424,0)"><svg viewBox="0 0 201.0129174072515 201.0129174072515" height="201.0129174072515" width="201.0129174072515"><g><svg></svg></g><g id="icon-0"><svg viewBox="0 0 201.0129174072515 201.0129174072515" height="201.0129174072515" width="201.0129174072515"><g><rect width="182.77285638326015" height="182.77285638326015" x="9.12003051199568" y="9.12003051199568" fill="#ffffff" data-fill-palette-color="accent"></rect><rect width="182.77285638326015" height="182.77285638326015" x="1.0658141036401503e-14" y="18.24006102399135" fill="#ffffff" opacity="0.5" data-fill-palette-color="accent"></rect></g><g transform="matrix(1,0,0,1,26.057230034273346,36.790973248927784)"><svg viewBox="0 0 148.89845733870482 127.43097090939594" height="127.43097090939594" width="148.89845733870482"><g><svg xmlns="http://www.w3.org/2000/svg" xmlns:xlink="http://www.w3.org/1999/xlink" version="1.1" x="0" y="0" viewBox="10.620000839233398 15.746999740600586 77.71099853515625 66.50698852539062" enable-background="new 0 0 100 100" xml:space="preserve" height="127.43097090939594" width="148.89845733870482" class="icon-a-0" data-fill-palette-color="background" id="a-0"><g fill="#eb6411" data-fill-palette-color="background"><path d="M29.064 34.39c-4.703 0-8.53 3.827-8.53 8.53 0 3.722 8.53 19.523 8.53 19.523s8.529-15.8 8.529-19.523C37.593 38.216 33.766 34.39 29.064 34.39zM29.063 46.531c-2.112 0-3.825-1.712-3.825-3.825s1.712-3.825 3.825-3.825 3.825 1.712 3.825 3.825S31.176 46.531 29.063 46.531z" fill="#eb6411" data-fill-palette-color="background"></path><g fill="#eb6411" data-fill-palette-color="background"><g fill="#eb6411" data-fill-palette-color="background"><path d="M29.125 27.993c-3.816 0-7.197 1.747-9.502 4.441l2.11 1.955c1.776-2.126 4.412-3.51 7.393-3.51 2.968 0 5.594 1.372 7.369 3.482l2.092-1.976C36.281 29.719 32.917 27.993 29.125 27.993z" fill="#eb6411" data-fill-palette-color="background"></path></g><g fill="#eb6411" data-fill-palette-color="background"><path d="M29.125 21.88c-5.584 0-10.589 2.477-14.013 6.375l2.113 1.958c2.896-3.329 7.151-5.447 11.9-5.447 4.714 0 8.941 2.089 11.835 5.377l2.095-1.978C39.633 24.32 34.664 21.88 29.125 21.88z" fill="#eb6411" data-fill-palette-color="background"></path></g><g fill="#eb6411" data-fill-palette-color="background"><path d="M29.125 15.747c-7.359 0-13.959 3.24-18.505 8.346l2.114 1.958c4.018-4.538 9.868-7.418 16.392-7.418 6.468 0 12.273 2.833 16.288 7.305l2.095-1.978C42.965 18.931 36.418 15.747 29.125 15.747z" fill="#eb6411" data-fill-palette-color="background"></path></g></g><path d="M76.286 72.447l-1.667 3.417L57.148 64.932l7.772-22.568L73.491 48h6.269l-15.411-9.549L47.2 52.332l-9.07-5.152c-0.34 0.925-0.744 1.864-1.189 2.901l8.984 4.952-7.765 23.279-16.757-9.3 3.623-10.872c-0.635-1.254-1.318-2.635-1.99-4.046l-5.469 16.405 21.197 11.755L55.82 68.204 76.397 81.03l2.793-8.062L76.286 72.447zM55.127 64.673L41.067 76.255l6.898-20.696 14.061-11.582L55.127 64.673z" fill="#eb6411" data-fill-palette-color="background"></path><g fill="#eb6411" data-fill-palette-color="background"><path d="M83.331 53.09c1.103 0 2 0.897 2 2v10.878c0 1.103-0.897 2-2 2H72.453c-1.103 0-2-0.897-2-2V55.09c0-1.103 0.897-2 2-2H83.331M83.331 50.09H72.453c-2.761 0-5 2.239-5 5v10.878c0 2.761 2.239 5 5 5h10.878c2.761 0 5-2.239 5-5V55.09C88.331 52.329 86.092 50.09 83.331 50.09L83.331 50.09z" fill="#eb6411" data-fill-palette-color="background"></path></g><rect x="76.511" y="55.659" width="6.385" height="4.693" fill="#eb6411" data-fill-palette-color="background"></rect></g></svg></g></svg></g></svg></g></svg></g><g></g></svg></g><defs></defs></svg><rect width="324.4431645089449" height="247.2" fill="none" stroke="none" visibility="hidden"></rect></g></svg></g></svg>